<?xml version="1.0" encoding="UTF-8" standalone="no" ?>
<!DOCTYPE svg PUBLIC "-//W3C//DTD SVG 1.1//EN" "http://www.w3.org/Graphics/SVG/1.1/DTD/svg11.dtd">
<svg xmlns="http://www.w3.org/2000/svg" xmlns:xlink="http://www.w3.org/1999/xlink" version="1.1" width="1080" height="1080" viewBox="0 0 1080 1080" xml:space="preserve">
<desc>Created with Fabric.js 5.2.4</desc>
<defs>
</defs>
<g transform="matrix(1 0 0 1 540 540)" id="9fe22cfd-734f-4d0b-8de1-1e4c5a69a08e"  >
</g>
<g transform="matrix(1 0 0 1 540 540)" id="36d0b1cf-d354-4f3d-a084-822495b0a289"  >
<rect style="stroke: none; stroke-width: 1; stroke-dasharray: none; stroke-linecap: butt; stroke-dashoffset: 0; stroke-linejoin: miter; stroke-miterlimit: 4; fill: rgb(255,255,255); fill-rule: nonzero; opacity: 1; visibility: hidden;" vector-effect="non-scaling-stroke"  x="-540" y="-540" rx="0" ry="0" width="1080" height="1080" />
</g>
<g transform="matrix(3.09 0 0 3.09 1798.15 672.8)"  >
<g style="" vector-effect="non-scaling-stroke"   >
		<g transform="matrix(1 0 0 1 -490 -490)"  >
<rect style="stroke: none; stroke-width: 1; stroke-dasharray: none; stroke-linecap: butt; stroke-dashoffset: 0; stroke-linejoin: miter; stroke-miterlimit: 4; fill: rgb(255,255,255); fill-opacity: 0; fill-rule: nonzero; opacity: 1;" vector-effect="non-scaling-stroke"  x="-50" y="-50" rx="0" ry="0" width="100" height="100" />
</g>
		<g transform="matrix(1 0 0 1 0 0)"  >
<rect style="stroke: none; stroke-width: 1; stroke-dasharray: none; stroke-linecap: butt; stroke-dashoffset: 0; stroke-linejoin: miter; stroke-miterlimit: 4; fill: rgb(255,255,255); fill-rule: nonzero; opacity: 1; visibility: hidden;" vector-effect="non-scaling-stroke"  x="-540" y="-540" rx="0" ry="0" width="1080" height="1080" />
</g>
		<g transform="matrix(2.75 0 0 2.75 -406.81 -42.96)"  >
<polygon style="stroke: none; stroke-width: 1; stroke-dasharray: none; stroke-linecap: butt; stroke-dashoffset: 0; stroke-linejoin: miter; stroke-miterlimit: 4; fill: rgb(226,0,26); fill-rule: nonzero; opacity: 1;" vector-effect="non-scaling-stroke"  points="-47.98,-47.98 47.98,-47.98 47.98,47.98 -47.98,47.98 -47.98,-47.98 -47.98,-47.98 " />
</g>
		<g transform="matrix(2.75 0 0 2.75 -370.97 -21.74)"  >
<polygon style="stroke: none; stroke-width: 1; stroke-dasharray: none; stroke-linecap: butt; stroke-dashoffset: 0; stroke-linejoin: miter; stroke-miterlimit: 4; fill: rgb(255,255,255); fill-rule: nonzero; opacity: 1;" vector-effect="non-scaling-stroke"  points="0.69,1.19 2.05,1.19 1.38,0.01 2.05,-1.19 0.69,-1.19 0.01,-2.38 -0.68,-1.19 -2.05,-1.19 -1.36,0.01 -2.05,1.19 -0.68,1.19 0.01,2.38 0.69,1.19 0.69,1.19 " />
</g>
		<g transform="matrix(2.75 0 0 2.75 -311.9 -21.74)"  >
<polygon style="stroke: none; stroke-width: 1; stroke-dasharray: none; stroke-linecap: butt; stroke-dashoffset: 0; stroke-linejoin: miter; stroke-miterlimit: 4; fill: rgb(255,255,255); fill-rule: nonzero; opacity: 1;" vector-effect="non-scaling-stroke"  points="0.69,1.19 2.06,1.19 1.37,0.01 2.06,-1.19 0.69,-1.19 0,-2.38 -0.69,-1.19 -2.05,-1.19 -1.38,0.01 -2.05,1.19 -0.69,1.19 0,2.38 0.69,1.19 0.69,1.19 " />
</g>
		<g transform="matrix(2.75 0 0 2.75 -341.41 -8.3)"  >
<path style="stroke: none; stroke-width: 1; stroke-dasharray: none; stroke-linecap: butt; stroke-dashoffset: 0; stroke-linejoin: miter; stroke-miterlimit: 4; fill: rgb(255,255,255); fill-rule: nonzero; opacity: 1;" vector-effect="non-scaling-stroke"  transform=" translate(-71.77, -61.24)" d="M 68 58.09 L 68 58.35 L 66.5 58.35 L 66.5 60.1 L 68.19 60.1 L 68.19 71.1 L 64.28999999999999 71.1 L 64.28999999999999 60.35 L 57.78999999999999 60.35 L 57.78999999999999 71.06 L 55.67 71.06 L 55.67 72.88 L 87.87 72.88 L 87.87 71.06 L 85.74 71.06 L 85.74 60.35 L 79.24 60.35 L 79.24 71.06 L 75.33999999999999 71.06 L 75.33999999999999 60.06 L 77 60.06 L 77 58.35 L 75.5 58.35 C 75.56816870264001 56.49124450546202 74.31096241068076 54.84430426299541 72.5 54.42 L 72.5 52.53 L 73.91 52.53 L 73.91 51.21 L 72.54 51.21 L 72.54 49.6 L 71 49.6 L 71 51.21 L 69.59 51.21 L 69.59 52.53 L 71 52.53 L 71 54.43 C 69.25770930625355 54.78957723846054 68.00586445752207 56.321000770075386 68 58.1 Z" stroke-linecap="round" />
</g>
		<g transform="matrix(2.75 0 0 2.75 -341.46 52.46)"  >
<path style="stroke: none; stroke-width: 1; stroke-dasharray: none; stroke-linecap: butt; stroke-dashoffset: 0; stroke-linejoin: miter; stroke-miterlimit: 4; fill: rgb(255,255,255); fill-rule: nonzero; opacity: 1;" vector-effect="non-scaling-stroke"  transform=" translate(-71.77, -83.33)" d="M 71.77 80.39 C 69.39517557572759 80.39 67.47 82.3151755757276 67.47 84.69 L 67.39 91.89 L 53.88 91.89 C 55.92320217943356 86.38295763394298 57.18544991300394 80.61700998699345 57.629999999999995 74.76000000000002 L 85.9 74.76 C 86.34533060830157 80.61689547869194 87.60755479480916 86.38273556265858 89.65 91.88999999999999 L 76.14 91.89 L 76.06 84.69 C 76.06 82.3151755757276 74.13482442427241 80.39 71.76 80.39 Z" stroke-linecap="round" />
</g>
		<g transform="matrix(2.75 0 0 2.75 -449.77 -121.38)"  >
<path style="stroke: none; stroke-width: 1; stroke-dasharray: none; stroke-linecap: butt; stroke-dashoffset: 0; stroke-linejoin: miter; stroke-miterlimit: 4; fill: rgb(255,255,255); fill-rule: nonzero; opacity: 1;" vector-effect="non-scaling-stroke"  transform=" translate(-32.39, -20.14)" d="M 41.81 32 L 38 32 L 38 21.2 L 26.71 21.2 L 26.71 23.689999999999998 C 26.71 29.11 23.51 32.349999999999994 17.25 32.349999999999994 C 10.82 32.349999999999994 7.789999999999999 29.349999999999994 7.789999999999999 23.799999999999994 L 7.789999999999999 7.94 L 11.68 7.94 L 11.68 23 C 11.68 26.87 13.03 29.13 17.29 29.13 C 21.549999999999997 29.13 22.9 26.89 22.9 23 L 22.9 7.94 L 26.709999999999997 7.94 L 26.709999999999997 17.89 L 38 17.89 L 38 7.94 L 41.85 7.94 L 41.85 17.89 L 53.14 17.89 L 53.14 7.94 L 57 7.94 L 57 32 L 53.14 32 L 53.14 21.2 L 41.81 21.2 L 41.81 32 Z" stroke-linecap="round" />
</g>
</g>
</g>
</svg>